<svg width="180" height="20" viewBox="0 0 180 20" fill="none" xmlns="http://www.w3.org/2000/svg">
<g clip-path="url(#clip0_1661_30)">
<path d="M2.20428 17.772C2.84279 16.9054 3.58773 13.4392 3.73975 12.8463L5.39685 6.20271C5.65529 5.16893 6.40023 2.06758 6.32421 1.26183C6.2634 0.820955 6.06577 0.532103 5.76171 0.395279H9.48638C9.21273 0.486495 8.89347 0.608117 8.66543 0.820955C8.28536 1.15541 7.78367 2.40204 7.46442 3.49663C7.14516 4.63683 6.8259 5.80744 6.73469 6.20271L4.48469 15.2027C4.33266 15.902 4.21104 16.6166 4.13502 17.1335C4.11982 17.7872 4.15023 18.3801 4.78874 18.4105C6.55225 18.4713 7.75327 18.4713 9.13671 18.0912C10.1857 17.7112 10.9914 17.1031 11.5539 15.9476H11.706L11.0371 18.6841H1.09448C1.50496 18.5777 1.93063 18.2585 2.20428 17.772Z" fill="#2E2E2E"/>
<path d="M11.1588 18.8666H0L1.04899 18.5473C1.45946 18.4257 1.83953 18.1064 2.06757 17.696L2.08277 17.6808C2.61486 16.951 3.26858 14.1993 3.51182 13.1655C3.54223 13.0135 3.57264 12.8919 3.58784 12.8159L5.24493 6.1723C6.08108 2.7821 6.2027 1.6419 6.1723 1.29224C6.11149 0.91217 5.95946 0.668926 5.70101 0.562507L4.92568 0.258453H10.5507L9.53209 0.57771C9.19764 0.684129 8.93919 0.805751 8.77196 0.957778C8.4527 1.23143 7.98142 2.32602 7.61655 3.55744C7.2973 4.69764 6.99324 5.86825 6.88682 6.26352L4.63682 15.2635C4.5152 15.8564 4.37838 16.5558 4.28716 17.1791C4.25676 17.9696 4.39358 18.2433 4.78885 18.2737C6.47635 18.3345 7.69257 18.3497 9.09122 17.9696C10.1858 17.5743 10.9003 16.9358 11.402 15.902L11.4476 15.8108H11.9189L11.1588 18.8666ZM7.73818 18.5473H10.9003L11.3868 16.5558C10.8699 17.3767 10.1554 17.9088 9.16723 18.2737C8.68074 18.3953 8.20946 18.4865 7.73818 18.5473ZM1.74831 18.5473H4.5152C3.9223 18.3497 3.9375 17.5743 3.9527 17.1487C4.05912 16.4949 4.18074 15.7956 4.31757 15.1875L6.56757 6.18751C6.67399 5.79224 6.99324 4.60643 7.2973 3.46622C7.61655 2.37163 8.11824 1.0946 8.54392 0.714534C8.60473 0.668926 8.66554 0.608116 8.72635 0.57771H6.23311C6.36993 0.74494 6.44595 0.97298 6.49155 1.26183C6.53716 1.80913 6.23311 3.49663 5.54899 6.24832L3.89189 12.8919C3.87669 12.9679 3.84628 13.0895 3.81588 13.2264C3.3902 15.0203 2.84291 17.1487 2.34122 17.848C2.18919 18.1368 1.97635 18.3649 1.74831 18.5473Z" fill="#2E2E2E"/>
<path d="M21.0405 0.410477C20.7821 0.501693 20.4476 0.623315 20.2652 0.836152C19.8395 1.15541 19.3682 2.41723 19.0185 3.51183C18.6841 4.62163 18.4104 5.80744 18.304 6.21791L16.4341 13.6976C16.1756 14.7466 15.4915 17.5895 15.902 18.2585C16.0084 18.4865 16.3277 18.6081 16.5709 18.6993H12.6638C12.831 18.6385 13.0287 18.5777 13.1503 18.4257C13.4088 18.3041 13.5912 18.0912 13.7888 17.772C14.1081 17.3311 14.4425 16.2821 14.6858 15.3395C14.9442 14.3666 15.1875 13.3632 15.3243 12.8615L17.1942 5.38176C17.4527 4.39359 18.1824 1.36825 17.7871 0.836152C17.6199 0.623315 17.4071 0.501693 17.1942 0.410477H21.0405Z" fill="#2E2E2E"/>
<path d="M17.5742 18.8666H11.782L12.6181 18.5625C12.8006 18.5017 12.9374 18.4409 13.0286 18.3345L13.0742 18.2889C13.2871 18.1824 13.4543 18.0152 13.6367 17.696C13.8952 17.3311 14.2144 16.4797 14.5185 15.2939C14.7769 14.321 15.0202 13.3176 15.1418 12.8159L17.0269 5.33616C17.635 2.96453 17.8783 1.23143 17.6502 0.927372C17.5286 0.775345 17.3462 0.653724 17.1333 0.562507L16.358 0.258453H22.0286L21.086 0.57771C20.8428 0.653724 20.5387 0.775345 20.3715 0.957778C20.0371 1.21622 19.5962 2.1892 19.1705 3.57264C18.8968 4.4848 18.6688 5.42737 18.532 5.98987L18.456 6.27872L16.5708 13.8041C16.3428 14.7314 15.6587 17.5743 16.0387 18.1824C16.13 18.3953 16.4948 18.5169 16.6316 18.5625L17.5742 18.8666ZM13.2871 18.5473H15.9171C15.8563 18.4865 15.7955 18.4105 15.7651 18.3345C15.385 17.7264 15.7955 15.6588 16.2668 13.728L16.282 13.6672L18.2279 5.89866C18.3496 5.36656 18.5928 4.39359 18.8816 3.46622C19.1401 2.59967 19.6722 1.0946 20.1739 0.714534C20.2195 0.668926 20.2651 0.623318 20.3259 0.57771H17.7718C17.8327 0.623318 17.8783 0.684129 17.9239 0.729737C18.3191 1.24663 17.8327 3.55744 17.3614 5.41217L15.4914 12.8919C15.3698 13.3936 15.1114 14.4122 14.8529 15.3699C14.6249 16.2365 14.2752 17.3767 13.9256 17.8632C13.7127 18.1976 13.5303 18.4105 13.2871 18.5473Z" fill="#2E2E2E"/>
<path d="M21.6943 0.410477H25.419C25.0997 0.516896 24.7045 0.775342 24.5524 1.33784C24.37 2.06757 24.3396 2.93413 24.37 3.80068C24.3548 4.11994 24.4156 4.40879 24.4308 4.72804C24.4764 5.26014 24.522 5.76183 24.522 6.1723L25.0845 17.9088C27.2129 14.0017 29.2501 10.0946 31.3633 6.1723C31.4545 5.95946 31.5913 5.68581 31.7585 5.35136C32.1842 4.51521 33.1876 2.61487 33.37 1.82433C33.5524 1.0946 33.446 0.714531 33.142 0.501693C33.1268 0.501693 33.066 0.440882 32.9747 0.410477H36.0001C35.9849 0.425679 35.9545 0.425679 35.9089 0.425679H35.9241C35.0879 0.699328 34.2214 1.74831 33.522 2.84291C32.9899 3.64865 32.5339 4.5 32.1538 5.24494C31.9866 5.53379 31.8345 5.79223 31.7281 6.00507L24.9173 18.7297H23.7011L23.0778 6.00507C23.017 5.07771 22.8193 2.00676 22.4849 1.23142C22.3176 0.744936 22.0288 0.516896 21.6943 0.410477Z" fill="#2E2E2E"/>
<path d="M25.0389 18.8818H23.5642L22.9105 5.85304C22.8345 4.80406 22.6521 2.00676 22.348 1.29223C22.196 0.896962 21.968 0.668921 21.6335 0.562502L20.6301 0.243245H26.392L25.4494 0.562502C25.1757 0.653718 24.8261 0.866556 24.6892 1.38345C24.4916 2.14358 24.4916 3.02534 24.5068 3.80068C24.4916 4.01352 24.522 4.19595 24.5372 4.39358C24.5524 4.5 24.5676 4.60642 24.5676 4.71284L24.5828 4.80406C24.6284 5.30575 24.6588 5.77703 24.6588 6.1723L25.1909 17.3159C26.1791 15.5068 27.1521 13.6672 28.0947 11.8885C29.1284 9.95777 30.147 8.02703 31.196 6.08108C31.2568 5.94426 31.348 5.74662 31.4697 5.51858L31.6065 5.26014C31.6825 5.10811 31.7737 4.94088 31.8649 4.74325C32.3362 3.81588 33.0507 2.40203 33.2028 1.76352C33.4004 1.00338 33.2484 0.760137 33.0507 0.623313C33.0355 0.60811 33.0051 0.60811 32.9899 0.592907C32.9595 0.577705 32.9443 0.562502 32.9139 0.547299L31.6673 0.228043H36.3649L36.3497 0.243245H36.9122L36.0609 0.532097C36.0305 0.562502 35.9849 0.562502 35.9545 0.562502C35.2855 0.790543 34.495 1.59629 33.6588 2.90372C33.1267 3.70946 32.6707 4.56081 32.3058 5.29054L32.245 5.39696C32.1082 5.6402 31.9865 5.85304 31.8953 6.03548L25.0389 18.8818ZM23.8835 18.5625H24.8565L24.9477 18.4105L24.3548 6.1875C24.3548 5.79223 24.3244 5.33615 24.2788 4.83446V4.74325C24.2788 4.63683 24.2636 4.53041 24.2484 4.43919C24.218 4.24156 24.2028 4.02872 24.218 3.80068C24.2028 3.02534 24.2028 2.11318 24.4156 1.30743C24.5068 0.972975 24.6588 0.744934 24.8413 0.577705H22.3024C22.4545 0.729732 22.5913 0.927367 22.6825 1.17061C22.9713 1.83953 23.1538 4.01352 23.2754 5.82264L23.2906 5.98987L23.8835 18.5625ZM33.4612 0.577705C33.674 0.851353 33.6892 1.27703 33.5372 1.86993C33.37 2.53885 32.6555 3.96791 32.169 4.91047C32.1082 5.0473 32.0474 5.16892 31.9865 5.27534L32.0474 5.16892C32.4274 4.43919 32.8835 3.57264 33.4156 2.76689C34.0845 1.71791 34.723 0.988178 35.3159 0.577705H33.4612ZM35.8936 0.304056L35.9088 0.319259V0.273651C35.9088 0.273651 35.9088 0.288853 35.8936 0.304056Z" fill="#2E2E2E"/>
<path d="M32.8075 18.2585C33.5373 17.696 34.5102 13.8649 34.7687 12.8615L36.6386 5.38176C36.8971 4.34798 37.6268 1.44426 37.1707 0.836152C37.0035 0.623315 36.8058 0.501693 36.5778 0.410477H46.2923L45.6234 3.14696H45.5018C45.5018 2.25 45.2129 1.6571 44.5592 1.29223C43.3886 0.699328 40.4393 0.668923 39.0711 0.668923L35.4224 15.1723C35.1031 16.4341 34.7687 18.3649 35.8785 18.4105C37.9156 18.5169 41.9596 18.6233 43.0846 15.8412H43.2366L42.5221 18.6993H31.9258C32.2298 18.6233 32.4883 18.4865 32.8075 18.2585ZM36.5018 9.80575H37.3836C40.5001 9.76014 41.6555 10.3074 42.6437 7.2669H42.7501L41.4275 12.5422H41.321C41.8835 9.85136 40.3785 10.0794 37.3531 10.0642H36.4714L36.5018 9.80575Z" fill="#2E2E2E"/>
<path d="M42.6589 18.8666H30.6943L31.8801 18.5473C32.169 18.4713 32.4122 18.3497 32.7011 18.1368C33.1572 17.7872 33.8413 15.8564 34.6014 12.8311L36.5018 5.22973C36.7298 4.30237 37.4291 1.45946 37.0339 0.94257C36.897 0.77534 36.7298 0.653719 36.517 0.577705L35.6656 0.273651H46.4899L45.745 3.32939H45.3345V3.16216C45.3345 2.31081 45.0609 1.77872 44.468 1.45946C43.6774 1.06419 41.8987 0.851354 39.1774 0.851354L36.9731 9.66892H37.3835C37.8396 9.66892 38.2653 9.66892 38.6453 9.66892C40.8649 9.69933 41.6859 9.71453 42.4916 7.23649L42.522 7.13007H42.9477L41.5491 12.7247H41.1234L41.169 12.527C41.3514 11.6453 41.321 11.098 41.0474 10.7635C40.5609 10.1706 39.2078 10.2466 37.3531 10.2314H36.8362L35.5896 15.2179C35.1335 17.0574 35.2856 17.772 35.4984 18.0456C35.5896 18.1824 35.7264 18.2432 35.9089 18.2432C37.5203 18.3193 41.8379 18.5473 42.9629 15.7804L43.0085 15.674H43.4646L42.6589 18.8666ZM38.7062 18.5473H42.4156L42.9173 16.5557C42.0051 17.8936 40.2872 18.3801 38.7062 18.5473ZM32.6707 18.5473H35.6808C35.4984 18.5017 35.3464 18.3953 35.2247 18.2432C34.8599 17.7568 34.8751 16.7382 35.2704 15.1419L36.4866 10.2314H36.2585L36.3497 9.65372H36.6234L38.8886 0.577705H37.1251C37.1707 0.623313 37.2315 0.684124 37.2771 0.729732C37.718 1.30743 37.2923 3.3598 36.8058 5.29054L36.7754 5.41216L34.9055 12.8919C34.3582 15.1115 33.5524 17.8784 32.8987 18.3801C32.8227 18.4409 32.7467 18.5017 32.6707 18.5473ZM39.9528 9.97298C40.5609 10.049 41.017 10.201 41.2906 10.5507C41.4426 10.7331 41.5339 10.9764 41.5795 11.2804L42.2484 8.63514C41.6555 9.62331 40.9562 9.89696 39.9528 9.97298ZM41.4883 0.577705C42.9781 0.668921 44.0271 0.866557 44.6048 1.15541C45.1521 1.45946 45.4714 1.90034 45.593 2.53885L46.0643 0.577705H41.4883Z" fill="#2E2E2E"/>
<path d="M62.4983 19.1554H59.6098V10.6875H53.4527V19.1554H50.5642V0.0151978H53.4527V8.01182H59.6098V0.0151978H62.4983V19.1554Z" fill="#2E2E2E"/>
<path d="M69.2331 8.04223H74.6757V10.7787H69.2331V16.4645H76.1504V19.1554H66.3142V0.0151978H76.1504V2.69087H69.2331V8.04223Z" fill="#2E2E2E"/>
<path d="M102.861 19.1554H93.0557V0.0151978H95.9442V16.4341H102.861V19.1554Z" fill="#2E2E2E"/>
<path d="M114.461 2.69087H109.809V19.1554H106.89V2.69087H102.238V0.0151978H114.446V2.69087H114.461Z" fill="#2E2E2E"/>
<path d="M128.767 19.1554H125.878V10.6875H119.721V19.1554H116.833V0.0151978H119.721V8.01182H125.878V0.0151978H128.767V19.1554Z" fill="#2E2E2E"/>
<path d="M132.583 19.1554V0.0151978H135.471V19.1554H132.583Z" fill="#2E2E2E"/>
<path d="M149.002 19.1554H139.196V0.0151978H142.085V16.4341H149.002V19.1554Z" fill="#2E2E2E"/>
<path d="M161.179 19.1554H151.373V0.0151978H154.262V16.4341H161.179V19.1554Z" fill="#2E2E2E"/>
<path d="M163.551 19.1554V0.0151978H166.439V19.1554H163.551Z" fill="#2E2E2E"/>
<path d="M173.083 8.04223H178.525V10.7787H173.083V16.4645H180V19.1554H170.164V0.0151978H180V2.69087H173.083V8.04223Z" fill="#2E2E2E"/>
<path d="M87.1116 0H84.4815H84.3599H81.7298L79.115 2.61486V19.1554H82.1555V12.3446H84.3599H84.4815H86.6859V19.1554H89.7265V2.61486L87.1116 0ZM86.6859 9.65372H84.4815H84.3599H82.1555V3.45101L82.8853 2.8277H84.3599H84.4815H85.9562L86.6859 3.45101V9.65372Z" fill="#2E2E2E"/>
</g>
<defs>
<clipPath id="clip0_1661_30">
<rect width="180" height="19.1554" fill="white"/>
</clipPath>
</defs>
</svg>
