<svg width="38" height="24" viewBox="0 0 38 24" fill="none" xmlns="http://www.w3.org/2000/svg">
  <rect x="0.5" y="0.5" width="37" height="23" rx="3.5" fill="white" stroke="#e7e7e7"/>
  <path d="M15.26 16.23h-2.42l1.52-9.47h2.42l-1.52 9.47Z" fill="#2E2E2E"/>
  <path d="M24.47 6.95c-.48-.19-1.23-.39-2.17-.39-2.39 0-4.07 1.28-4.09 3.12-.01 1.36 1.21 2.12 2.13 2.57.95.47 1.27.77 1.26 1.18-.01.64-.75.93-1.45.93-.97 0-1.49-.14-2.28-.5l-.31-.15-.34 2.12c.57.26 1.62.49 2.71.5 2.54 0 4.19-1.26 4.21-3.24.01-1.08-.64-1.9-2.04-2.58-.85-.44-1.37-.73-1.37-1.17.01-.4.44-.82 1.39-.82.8-.01 1.37.17 1.82.36l.22.11.33-2.04Z" fill="#2E2E2E"/>
  <path d="M28.07 6.77h-1.87c-.58 0-1.01.17-1.27.78l-3.58 8.68h2.53l.51-1.42h3.09l.29 1.42h2.24l-1.94-9.46Zm-2.97 6.11c.2-.54.96-2.63.96-2.63l.58 2.63h-1.54Z" fill="#2E2E2E"/>
  <path d="M12.21 6.77 9.84 13.3l-.26-1.32C9.13 10.52 7.75 9 6.22 8.15l2.16 8.07h2.55l3.82-9.45h-2.54Z" fill="#2E2E2E"/>
</svg>
