<svg width="680" height="70" viewBox="0 0 680 70" fill="none" xmlns="http://www.w3.org/2000/svg">
  <rect width="680" height="70" rx="10" fill="#e8eff2"/>
  <!-- Stars section -->
  <g transform="translate(40, 12)">
    <polygon points="7 1 9.09 5.26 14 5.77 10.5 9.14 11.18 14.02 7 11.77 2.82 14.02 3.5 9.14 0 5.77 4.91 5.26" fill="#FDBE40" transform="scale(1)"/>
    <polygon points="7 1 9.09 5.26 14 5.77 10.5 9.14 11.18 14.02 7 11.77 2.82 14.02 3.5 9.14 0 5.77 4.91 5.26" fill="#FDBE40" transform="translate(16, 0) scale(1)"/>
    <polygon points="7 1 9.09 5.26 14 5.77 10.5 9.14 11.18 14.02 7 11.77 2.82 14.02 3.5 9.14 0 5.77 4.91 5.26" fill="#FDBE40" transform="translate(32, 0) scale(1)"/>
    <polygon points="7 1 9.09 5.26 14 5.77 10.5 9.14 11.18 14.02 7 11.77 2.82 14.02 3.5 9.14 0 5.77 4.91 5.26" fill="#FDBE40" transform="translate(48, 0) scale(1)"/>
    <polygon points="7 1 9.09 5.26 14 5.77 10.5 9.14 11.18 14.02 7 11.77 2.82 14.02 3.5 9.14 0 5.77 4.91 5.26" fill="#FDBE40" transform="translate(64, 0) scale(1)"/>
    <text x="84" y="12" fill="#2E2E2E" font-size="14" font-weight="600" font-family="system-ui, sans-serif">4.8</text>
  </g>
  <text x="40" y="46" fill="#565656" font-size="11" font-family="system-ui, sans-serif">130,000+ Customers Living Healthillie</text>
  <!-- Divider 1 -->
  <rect x="230" y="12" width="1" height="46" fill="#1a3c4d" opacity="0.15"/>
  <!-- Free Shipping -->
  <text x="280" y="30" fill="#2E2E2E" font-size="13" font-weight="600" font-family="system-ui, sans-serif">Free Shipping</text>
  <text x="280" y="48" fill="#565656" font-size="11" font-family="system-ui, sans-serif">On orders over $123</text>
  <!-- Divider 2 -->
  <rect x="450" y="12" width="1" height="46" fill="#1a3c4d" opacity="0.15"/>
  <!-- Easy Returns -->
  <text x="500" y="30" fill="#2E2E2E" font-size="13" font-weight="600" font-family="system-ui, sans-serif">Easy Returns</text>
  <text x="500" y="48" fill="#565656" font-size="11" font-family="system-ui, sans-serif">30-day hassle-free</text>
</svg>
